<svg role="img" viewBox="0 0 24 24" xmlns="http://www.w3.org/2000/svg"><defs><radialGradient id="a" cx="4.62" cy="20.03" r="23.95" gradientUnits="userSpaceOnUse"><stop stop-color="#fd5"/><stop offset=".5" stop-color="#ff543e"/><stop offset="1" stop-color="#c837ab"/></radialGradient></defs><path d="M12 0C8.74 0 8.33.01 7.05.07c-1.25.06-2.1.27-2.85.58-.76.3-1.4.7-2.02 1.33S.95 3.96.64 4.72c-.3.75-.52 1.6-.58 2.85C.01 8.33 0 8.74 0 12s.01 3.67.07 4.95c.06 1.25.27 2.1.58 2.85.3.76.7 1.4 1.33 2.02s1.26.95 2.02 1.26c.75.3 1.6.52 2.85.58 1.28.06 1.69.07 4.95.07s3.67-.01 4.95-.07c1.25-.06 2.1-.27 2.85-.58.76-.3 1.4-.7 2.02-1.33s.95-1.26 1.26-2.02c.3-.75.52-1.6.58-2.85.06-1.28.07-1.69.07-4.95s-.01-3.67-.07-4.95c-.06-1.25-.27-2.1-.58-2.85-.3-.76-.7-1.4-1.33-2.02S20.04.95 19.28.64c-.75-.3-1.6-.52-2.85-.58C15.17.01 14.76 0 12 0zm0 2.16c3.2 0 3.58.01 4.85.07 1.17.06 1.8.29 2.22.46.5.21.89.47 1.28.87.4.39.66.78.87 1.28.17.42.4 1.05.46 2.22.06 1.27.07 1.65.07 4.85s-.01 3.58-.07 4.85c-.06 1.17-.29 1.8-.46 2.22-.21.5-.47.89-.87 1.28-.39.4-.78.66-1.28.87-.42.17-1.05.4-2.22.46-1.27.06-1.65.07-4.85.07s-3.58-.01-4.85-.07c-1.17-.06-1.8-.29-2.22-.46-.5-.21-.89-.47-1.28-.87-.4-.39-.66-.78-.87-1.28-.17-.42-.4-1.05-.46-2.22-.06-1.27-.07-1.65-.07-4.85s.01-3.58.07-4.85c.06-1.17.29-1.8.46-2.22.21-.5.47-.89.87-1.28.39-.4.78-.66 1.28-.87.42-.17 1.05-.4 2.22-.46C8.42 2.18 8.8 2.16 12 2.16zm0 3.84a6 6 0 1 0 0 12 6 6 0 0 0 0-12zm0 9.8a3.8 3.8 0 1 1 0-7.6 3.8 3.8 0 0 1 0 7.6zM17.5 4.5a1.44 1.44 0 1 0 2.88 0 1.44 1.44 0 0 0-2.88 0z" fill="url(#a)"/></svg>