<svg role="img" viewBox="0 0 24 24" xmlns="http://www.w3.org/2000/svg" fill-rule="evenodd" clip-rule="evenodd" stroke-linejoin="round" stroke-miterlimit="2"><path d="M12.001 2.002c-5.522 0-9.998 4.478-9.998 10.001 0 1.751.45 3.42.94 4.93l-1.44 5.242 5.37-1.41c1.47.86 3.16.94 4.88.94h.001c5.522 0 9.998-4.478 9.998-10.001s-4.476-10.002-9.998-10.002zm0 18.232h-.001c-1.44 0-2.92-.35-4.2-.99l-.3-.18-3.12.82.83-3.04-.2-.32c-.7-1.35-1.07-2.82-1.07-4.37 0-4.54 3.69-8.23 8.23-8.23 2.22 0 4.29.86 5.82 2.39 1.53 1.53 2.39 3.6 2.39 5.83-.01 4.54-3.7 8.23-8.24 8.23zm4.51-6.17c-.25-.12-1.47-.73-1.7-.82-.23-.08-.39-.12-.56.12-.17.25-.64.82-.79.98-.15.17-.29.18-.54.06-.25-.12-1.06-.39-2.02-1.25-.75-.67-1.25-1.5-1.4-1.75-.14-.25-.02-.38.11-.5.12-.11.26-.29.39-.43.13-.14.17-.25.26-.41.08-.17.04-.31-.02-.43-.06-.12-.56-1.34-.76-1.84-.2-.48-.4-.42-.55-.42-.14-.01-.3-.01-.46-.01-.16 0-.42.06-.64.3-.22.25-.86.85-.86 2.07 0 1.22.88 2.4 1.01 2.56.12.17 1.73 2.64 4.2 3.7.59.25 1.05.4 1.41.51.6.2 1.13.17 1.55.1.47-.08 1.47-.6 1.68-1.18.2-.58.2-.97.14-1.11-.06-.12-.22-.18-.46-.3z" fill="#25D366"/></svg>